<?xml version="1.0" encoding="UTF-8"?>
<svg id="Layer_2" data-name="Layer 2" xmlns="http://www.w3.org/2000/svg" xmlns:xlink="http://www.w3.org/1999/xlink" viewBox="0 0 24 24">
  <defs>
    <style>
      .cls-1 {
        stroke: #fff;
        stroke-linecap: round;
        stroke-linejoin: round;
      }

      .cls-1, .cls-2 {
        fill: none;
      }

      .cls-2 {
        stroke-width: 0px;
      }

      .cls-3 {
        clip-path: url(#clippath);
      }
    </style>
    <clipPath id="clippath">
      <rect class="cls-2" width="24" height="24"/>
    </clipPath>
  </defs>
  <g id="Layer_1-2" data-name="Layer 1">
    <g class="cls-3">
      <path class="cls-1" d="M12.5,23.5H1.5c-.27,0-.52-.11-.71-.29-.19-.19-.29-.44-.29-.71V1.5c0-.27.11-.52.29-.71.19-.19.44-.29.71-.29h21c.27,0,.52.11.71.29.19.19.29.44.29.71v21c0,.27-.11.52-.29.71s-.44.29-.71.29h-6v-9h2.56c.12,0,.24-.04.33-.12.09-.08.15-.19.17-.31l.38-3c0-.07,0-.14-.02-.21-.02-.07-.06-.13-.1-.18-.05-.05-.11-.1-.17-.12s-.14-.04-.21-.04h-2.93v-1.31c0-.45.18-.88.49-1.19.32-.32.74-.49,1.19-.49h1.81c.13,0,.26-.05.35-.15.09-.09.15-.22.15-.35v-3c0-.13-.05-.26-.15-.35-.09-.09-.22-.15-.35-.15h-1.81c-1.51,0-2.95.6-4.02,1.67s-1.67,2.51-1.67,4.02v1.31h-2.5c-.13,0-.26.05-.35.15-.09.09-.15.22-.15.35v3c0,.13.05.26.15.35.09.09.22.15.35.15h2.5v9Z"/>
    </g>
  </g>
</svg>