<?xml version="1.0" encoding="UTF-8"?>
<svg id="Layer_2" data-name="Layer 2" xmlns="http://www.w3.org/2000/svg" viewBox="0 0 22 21">
  <defs>
    <style>
      .cls-1 {
        fill: none;
        stroke: #fff;
        stroke-linecap: round;
        stroke-linejoin: round;
      }
    </style>
  </defs>
  <g id="Layer_1-2" data-name="Layer 1">
    <path class="cls-1" d="M5.5,20.5H.5V7.5h5v13ZM14.5,11.5c-.53,0-1.04.21-1.41.59s-.59.88-.59,1.41v7h-5V7.5h5v1.48c1.12-.95,2.53-1.47,3.99-1.49,2.96,0,5.01,2.2,5.01,6.36v6.65h-5v-7c0-.53-.21-1.04-.59-1.41-.38-.38-.88-.59-1.41-.59h0ZM5.5,3c0,.49-.15.98-.42,1.39-.27.41-.67.73-1.12.92-.46.19-.96.24-1.44.14-.48-.1-.93-.33-1.28-.68-.35-.35-.59-.8-.68-1.28-.1-.48-.05-.99.14-1.44.19-.46.51-.85.92-1.12.41-.27.89-.42,1.39-.42.66,0,1.3.26,1.77.73.47.47.73,1.1.73,1.77Z"/>
  </g>
</svg>